<?xml version="1.0" encoding="iso-8859-1"?>
<!-- Generator: Adobe Illustrator 18.1.1, SVG Export Plug-In . SVG Version: 6.00 Build 0)  -->
<svg version="1.1" id="Capa_1" xmlns="http://www.w3.org/2000/svg" xmlns:xlink="http://www.w3.org/1999/xlink" x="0px" y="0px"
	 viewBox="0 0 48.38 48.38" style="enable-background:new 0 0 48.38 48.38;" xml:space="preserve">
<g>
	<path style="fill:#1D1C1A;" d="M47.986,43.159c-1.196-2.274-2.492-4.258-3.845-5.917c1.642-6.709-0.132-13.562-4.867-17.884
		c-2.207-2.014-4.852-3.276-7.772-3.78c1.623-3.942,3.257-7.611,4.855-10.321c0.958-1.624,0.419-3.718-1.206-4.677
		c-1.623-0.958-3.718-0.419-4.677,1.206c-2.207,3.739-4.355,8.823-6.445,14.042c-2.474,0.543-5.03,1.526-7.595,2.951
		c-0.476,0.265-0.989,0.566-1.514,0.883c-1.384-4.897-2.542-9.878-3.262-13.841C11.321,3.965,9.545,2.738,7.687,3.07
		C5.831,3.407,4.6,5.185,4.937,7.041c0.816,4.493,2.247,10.681,4.052,16.732c-4.438,3.526-8.548,7.994-8.927,12.276
		c-0.396,4.465,1.18,7.164,2.571,8.641c2.029,2.154,5.109,3.291,8.685,3.185c2.813-0.082,5.235-1.831,7.454-4.715
		c0.238,0.051,0.481,0.08,0.725,0.08c0.739,0,1.485-0.239,2.111-0.732c1.482-1.167,1.737-3.315,0.57-4.797
		c-0.006-0.008-0.012-0.017-0.018-0.024c2.278-4.368,4.43-9.784,6.708-15.541c2.259,0.08,4.237,0.831,5.8,2.258
		c2.047,1.868,3.152,4.677,3.213,7.715c-1.424-0.618-2.844-0.864-4.221-0.708c-1.488,0.17-5.106,1.154-6.54,6.608
		c-1.114,4.237,0.951,8.584,4.702,9.896c0.356,0.124,1.17,0.359,2.241,0.359c1.844,0,4.45-0.693,6.803-3.832
		c0.355,0.582,0.715,1.214,1.075,1.898c0.879,1.669,2.943,2.312,4.613,1.432C48.223,46.894,48.865,44.829,47.986,43.159z
		 M11.123,41.046c-1.568,0.051-2.852-0.334-3.516-1.039c-0.629-0.668-0.878-1.797-0.74-3.356c0.114-1.286,1.761-3.498,4.417-5.902
		c0.939,2.571,1.935,4.961,2.968,7.005C12.202,40.904,11.132,41.046,11.123,41.046z M18.28,29.955
		c-0.433-1.126-0.861-2.319-1.279-3.554c0.879-0.567,1.797-1.121,2.75-1.65c0.309-0.171,0.616-0.335,0.922-0.489
		C19.88,26.223,19.081,28.144,18.28,29.955z M34.08,41.467c-0.175-0.068-0.613-0.712-0.35-1.711
		c0.285-1.082,0.639-1.508,0.703-1.558c0.021-0.004,0.045-0.006,0.071-0.006c0.288,0,0.898,0.229,1.721,0.823
		C35.179,41.002,34.258,41.463,34.08,41.467z"/>
</g>
<g>
</g>
<g>
</g>
<g>
</g>
<g>
</g>
<g>
</g>
<g>
</g>
<g>
</g>
<g>
</g>
<g>
</g>
<g>
</g>
<g>
</g>
<g>
</g>
<g>
</g>
<g>
</g>
<g>
</g>
</svg>
